<svg width="73px" height="55px" viewBox="0 0 73 55" version="1.1" xmlns="http://www.w3.org/2000/svg" xmlns:xlink="http://www.w3.org/1999/xlink">
    <!-- Generator: Sketch 50.2 (55047) - http://www.bohemiancoding.com/sketch -->
    <title>Group</title>
    <desc>Created with Sketch.</desc>
    <defs></defs>
    <g id="Page-1" stroke="none" stroke-width="1" fill="none" fill-rule="evenodd">
        <g id="Artboard-2" transform="translate(-13.000000, -17.000000)">
            <g id="Group" transform="translate(13.000000, 17.000000)">
                <g id="Group-Copy" transform="translate(2.000000, 11.000000)">
                    <path d="M68.1193542,0.303458359 C68.4438032,0.573862843 70.9325086,9.34110121 58.3241678,17.8791605 C58.7777774,17.9553608 59.7299745,19.5213598 58.3241678,23.11752 C58.807697,23.1420732 60.7839905,28.2043415 60.3256689,28.9948606 C61.215092,29.5403229 59.6068545,36.0686388 51.0068962,37.5679258 C51.456058,37.790932 47.8575923,37.7789979 44.2766821,38.2785126 C40.6957718,38.7780273 39.5490462,43.4419573 33.5554771,43.0466705 C30.6880824,42.8575606 25.7236827,38.8306838 22.5604346,37.5679258 C16.6373072,35.2034332 12.3094073,36.3291089 10.2205282,34.4516964 C9.54205195,33.0277666 6.46777163,31.2014672 8.62389437,25.00071 C9.17680953,23.4105905 8.62389437,23.6453313 11.03905,21.1317257 C9.00147494,19.0037089 10.3630484,17.8791605 10.3630484,16.8318399 C7.18829002,15.1003355 -2.41545975,9.55929891 1.54908599,0.52207828 C5.69996219,-1.3882117 8.42593417,2.75229787 19.2683746,6.52940635 C20.9045145,5.42916177 20.0638036,5.96990957 21.205271,6.52940635 C22.970828,6.86605491 25.2803333,4.57885737 28.3735754,3.57791916 C29.39827,1.59580347 31.3586843,2.03832577 35.4304528,3.94548087 C35.8375963,4.19511543 36.2327211,4.36479933 36.7638458,3.94548087 C39.0708073,2.12415428 42.7224928,0.0308288824 46.5464456,5.28282028 C47.4945049,5.96934321 48.9749058,6.52940635 49.917804,5.68360883 C53.4173572,10.0486417 65.2447482,-2.03510428 68.1193542,0.303458359 Z" id="Rectangle-2" fill="#000000"></path>
                    <path d="M30.8836665,20.5102656 C30.8836665,17.8581331 23.8853314,17.5449632 19.5182177,15.7203166 C16.7148521,21.6636716 29.8725884,28.721459 30.8836665,20.5102656 Z" id="Oval" fill="#DAAA67"></path>
                    <path d="M50.5745756,20.1672577 C50.5745756,17.5151251 43.5762405,17.2019553 39.2091268,15.3773087 C36.4057612,21.3206637 49.5634975,28.3784511 50.5745756,20.1672577 Z" id="Oval-Copy" fill="#DAAA67" transform="translate(44.696379, 19.637277) scale(-1, 1) translate(-44.696379, -19.637277) "></path>
                    <ellipse id="Oval-2" fill="#000000" cx="44.6909091" cy="20.1794195" rx="1" ry="2.74406332"></ellipse>
                    <ellipse id="Oval-2-Copy" fill="#000000" cx="25.3454545" cy="20.5224274" rx="1" ry="2.67185113"></ellipse>
                </g>
                <g id="Group-5" transform="translate(16.000000, 0.000000)">
                    <path d="M9.88821946,1.80846231 C11.1449189,0.610150812 12.2409931,0.491346962 16.1421173,1.32002471 C18.0308406,1.72122775 20.9557364,2.49511236 22.2619447,2.49511236 C23.508321,2.49511236 24.9628156,1.98691131 26.6669777,1.80846231 C29.7766501,1.48283724 32.0059807,1.32002471 33.3549697,1.32002471 C34.25724,1.62536128 34.7130252,1.88291672 34.7223252,2.09269105 C34.725746,2.16985354 34.7600757,2.7949236 34.7223252,4.65578586 C34.7040783,5.55524231 35.320203,8.03183044 36.5706994,12.0855503 L37.0870343,12.0855503 L37.4686447,15.3995063 C42.5715111,15.0343411 44.7627461,15.1360087 44.0423497,15.7045092 C40.563593,20.4182923 32.8578832,24.978298 23.1054442,24.978298 C12.9552067,24.978298 0.310721462,18.6314282 1,16.1077174 C0.0148356595,15.5362551 2.05417861,15.4018523 7.11802884,15.7045092 C7.33650496,14.1555793 7.53183367,12.9492596 7.70401498,12.0855503 C7.74095536,11.9002471 7.87818686,11.9002471 8.11570949,12.0855503 C8.75917471,10.2203517 9.1658552,8.79522104 9.33575094,7.81015829 C9.59059457,6.33256417 8.63152005,3.0067738 9.88821946,1.80846231 Z" id="Rectangle-3" fill="#4E2F02"></path>
                    <path d="M7.80447896,11.934237 C14.4646692,12.2218036 19.4769043,12.3655869 22.8411843,12.3655869 C26.2054644,12.3655869 30.8596336,12.2218036 36.8036919,11.934237 L37.4439206,15.4345866 C30.9699732,15.968228 26.1023945,16.2497484 22.8411843,16.2791477 C19.5799742,16.308547 14.2834214,16.1186547 6.95152597,15.7094708 L7.80447896,11.934237 Z" id="Rectangle-4" fill="#000000"></path>
                </g>
                <path d="M51.5,38.5 L71.5,28.5" id="Line" stroke="#000000" stroke-linecap="square"></path>
                <path d="M51.5,38.5 L72.5,37.5" id="Line-2" stroke="#000000" stroke-linecap="square"></path>
                <path d="M51.5,39.5 L71.5,45.5" id="Line-3" stroke="#000000" stroke-linecap="square"></path>
                <path d="M0.5,39.5 L20.5,29.5" id="Line-Copy" stroke="#000000" stroke-linecap="square" transform="translate(10.500000, 34.500000) scale(-1, 1) translate(-10.500000, -34.500000) "></path>
                <path d="M0.5,39.5 L21.5,38.5" id="Line-2-Copy" stroke="#000000" stroke-linecap="square" transform="translate(11.000000, 39.000000) scale(-1, 1) translate(-11.000000, -39.000000) "></path>
                <path d="M0.5,40.5 L20.5,46.5" id="Line-3-Copy" stroke="#000000" stroke-linecap="square" transform="translate(10.500000, 43.500000) scale(-1, 1) translate(-10.500000, -43.500000) "></path>
            </g>
        </g>
    </g>
</svg>
